<svg width="155" height="176" viewBox="0 0 155 176" fill="none" xmlns="http://www.w3.org/2000/svg">
<path d="M117.621 25.1525L51.1375 64.9401L80.4458 82.0816C90.6561 75.9497 112.859 62.7243 119.988 58.8779C127.116 55.0315 128.713 59.505 128.62 62.2226V117.897L54.6183 161.169L80.1673 175.872L154.308 131.206V45.3599L117.621 25.1525Z" fill="#19549B"/>
<path d="M36.6876 149.852L103.171 110.301L73.8626 93.262C63.6522 99.3574 41.4493 112.504 34.3207 116.328C27.192 120.151 25.5954 115.704 25.6883 113.003L25.6883 57.6594L99.6901 14.6452L74.141 0.0301336L-3.656e-05 44.4296L-4.40203e-05 129.765L36.6876 149.852Z" fill="#19549B"/>
</svg>
